PathFileType	4	(X/Y/Z)	C:/Users/opensim2020/Desktop/walking_exp_matlab/subject01_walking04_static.trc	
DataRate	CameraRate	NumFrames	NumMarkers	Units	OrigDataRate	OrigDataStartFrame	OrigNumFrames	
100.00	100.00	6	43	mm	100.00	41	321	
Frame#	Time	LFHD			RFHD			LBHD			RBHD			C7			T10			CLAV			STRN			RBAK			LSHO			LUPA			LELB			LFRM			LWRA			LWRB			LFIN			RSHO			RUPA			RELB			RFRM			RWRA			RWRB			RFIN			LASI			RASI			LPSI			RPSI			LTHI			LKNE			LTIB			LANK			LHEE			LTOE			RTHI			RKNE			RTIB			RANK			RHEE			RTOE			*39			*40			*41			*42			
		X1	Y1	Z1	X2	Y2	Z2	X3	Y3	Z3	X4	Y4	Z4	X5	Y5	Z5	X6	Y6	Z6	X7	Y7	Z7	X8	Y8	Z8	X9	Y9	Z9	X10	Y10	Z10	X11	Y11	Z11	X12	Y12	Z12	X13	Y13	Z13	X14	Y14	Z14	X15	Y15	Z15	X16	Y16	Z16	X17	Y17	Z17	X18	Y18	Z18	X19	Y19	Z19	X20	Y20	Z20	X21	Y21	Z21	X22	Y22	Z22	X23	Y23	Z23	X24	Y24	Z24	X25	Y25	Z25	X26	Y26	Z26	X27	Y27	Z27	X28	Y28	Z28	X29	Y29	Z29	X30	Y30	Z30	X31	Y31	Z31	X32	Y32	Z32	X33	Y33	Z33	X34	Y34	Z34	X35	Y35	Z35	X36	Y36	Z36	X37	Y37	Z37	X38	Y38	Z38	X39	Y39	Z39	X40	Y40	Z40	X41	Y41	Z41	X42	Y42	Z42	X43	Y43	Z43	

41	0.400	7.23501	-405.57562	1684.28955	5.09615	-291.51627	1694.29028	104.56226	-406.56720	1605.38098	106.04441	-286.06647	1613.99023	107.37254	-356.94412	1437.01563	131.91893	-346.01355	1143.28027	-40.23436	-345.95081	1376.18799	-88.64616	-345.51993	1221.41858	157.82600	-276.87473	1241.94910	12.34710	-510.53046	1398.83765	33.23698	-606.11078	1222.50488	43.17602	-630.22906	1074.58459	-8.13251	-640.48669	966.41302	-79.18185	-594.37250	854.68121	-38.48875	-639.15509	848.32153	-90.90917	-628.54108	781.59833	29.95756	-199.41176	1402.26038	80.94206	-82.17262	1213.26123	65.77062	-55.03632	1089.82495	18.04457	-35.56625	972.92548	-49.87227	-87.51485	858.06293	-30.73581	-32.76427	859.81073	-65.11443	-50.22121	782.86646	-53.91655	-445.41132	937.30475	-42.86789	-228.25342	941.03192	137.46611	-404.18869	951.87164	143.52307	-261.51849	957.35077	-0.34845	-517.50525	606.32349	22.42101	-507.87991	472.23608	74.76861	-530.57709	293.02274	84.70578	-488.35663	71.66257	124.10277	-435.87637	39.39581	-64.35490	-509.02222	33.29350	32.05928	-157.71759	613.22290	25.24031	-173.60066	456.13010	72.56663	-151.15549	288.20151	79.79309	-179.18875	78.51072	124.71573	-227.65987	35.56047	-61.78949	-164.37265	36.98528	26.73265	-315.83429	1722.33984	-3101.85791	1973.15295	1023.32080	-3140.67285	2012.52197	1021.99097			 
42	0.410	7.24524	-405.58969	1684.27795	5.11628	-291.54794	1694.29456	104.56690	-406.57562	1605.40417	106.05049	-286.09656	1613.95862	107.43128	-356.95026	1437.00208	131.98827	-345.97968	1143.26514	-40.16922	-345.95639	1376.18787	-88.60819	-345.49841	1221.41382	157.92014	-276.92004	1241.95325	12.39396	-510.52344	1398.80701	33.30954	-606.11774	1222.48035	43.26707	-630.21051	1074.53894	-8.06868	-640.49139	966.35779	-79.09583	-594.36719	854.64233	-38.42627	-639.12671	848.28485	-90.84693	-628.53741	781.56561	30.02682	-199.41527	1402.24500	80.97700	-82.16621	1213.23560	65.80438	-55.02818	1089.81104	18.08341	-35.53270	972.92218	-49.81514	-87.50301	858.05090	-30.70607	-32.75381	859.79919	-65.12214	-50.13359	782.93079	-53.85161	-445.37225	937.31494	-42.83136	-228.22832	941.01587	137.53409	-404.16840	951.87134	143.59630	-261.48880	957.35126	-0.30296	-517.48737	606.32629	22.46020	-507.86746	472.23425	74.81365	-530.56787	293.04388	84.75350	-488.30798	71.66106	124.10928	-435.86365	39.36418	-64.31336	-509.05408	33.29591	32.17740	-157.72935	613.20746	25.30954	-173.56903	456.13922	72.61807	-151.13742	288.16910	79.80785	-179.18904	78.54055	124.75480	-227.66708	35.56442	-61.77474	-164.38234	36.97737	26.76593	-315.88040	1722.33374	-3101.92676	1973.13171	1023.27118	-3140.57422	2012.50427	1021.96466			 
43	0.420	7.22331	-405.61600	1684.26721	5.11894	-291.56995	1694.27832	104.58463	-406.56564	1605.43262	106.08453	-286.09467	1613.99548	107.46706	-356.96506	1437.00500	132.06261	-345.97269	1143.24634	-40.12112	-345.95023	1376.17688	-88.53233	-345.49750	1221.39563	157.94832	-276.93420	1241.95044	12.45754	-510.53568	1398.80005	33.40106	-606.10803	1222.44189	43.35519	-630.17688	1074.48682	-7.97983	-640.51434	966.36511	-79.03160	-594.40039	854.61316	-38.35199	-639.13104	848.27124	-90.78396	-628.53046	781.55902	30.09298	-199.41052	1402.24768	81.04339	-82.18539	1213.21338	65.86478	-55.02146	1089.79980	18.12042	-35.53159	972.92023	-49.77468	-87.51095	858.05475	-30.65526	-32.72624	859.80273	-64.97801	-50.59599	782.78235	-53.79848	-445.34912	937.30420	-42.76149	-228.24229	941.02881	137.60402	-404.15173	951.86517	143.63553	-261.48837	957.34241	-0.24624	-517.46185	606.31055	22.50860	-507.86108	472.23294	74.82137	-530.54681	293.01120	84.72733	-488.30420	71.63895	124.14495	-435.84879	39.39322	-64.33096	-509.02789	33.29657	32.24256	-157.70020	613.18073	25.36362	-173.55426	456.13489	72.69319	-151.14311	288.16568	79.85840	-179.16530	78.49252	124.74543	-227.66362	35.58808	-61.77226	-164.37973	37.01480	26.72669	-315.86929	1722.36182	-3102.12305	1972.95190	1023.82245	-3140.54736	2012.55078	1022.03735			 
44	0.430	7.21016	-405.62473	1684.27246	5.08454	-291.57651	1694.27808	104.60548	-406.59644	1605.43274	106.08500	-286.13629	1614.02686	107.50951	-356.93027	1437.01917	132.14122	-345.95413	1143.28186	-40.04406	-345.95065	1376.17310	-88.49609	-345.49872	1221.38757	158.00615	-276.92615	1241.92798	12.50088	-510.53394	1398.78479	33.47891	-606.12433	1222.44446	43.42106	-630.20184	1074.49915	-7.91735	-640.51721	966.35541	-78.96479	-594.40607	854.57294	-38.30412	-639.13452	848.24384	-90.75455	-628.54431	781.54694	30.13342	-199.43166	1402.25024	81.10028	-82.18172	1213.23010	65.90195	-55.00383	1089.79688	18.16603	-35.51500	972.91553	-49.75805	-87.49187	858.06946	-30.61686	-32.73772	859.81439	-65.01582	-50.31031	782.86517	-53.75121	-445.36584	937.30945	-42.77613	-228.18251	941.03961	137.62451	-404.11826	951.87292	143.68927	-261.47226	957.38104	-0.21450	-517.48499	606.33063	22.54401	-507.86746	472.24750	74.85561	-530.55811	293.03497	84.72045	-488.33612	71.63825	124.10412	-435.86133	39.34725	-64.31544	-509.05316	33.29882	32.31067	-157.71376	613.22913	25.47600	-173.55241	456.11719	72.76200	-151.15547	288.16623	79.83446	-179.16794	78.48946	124.74728	-227.66693	35.59683	-61.75338	-164.38051	36.98365	26.72794	-315.88977	1722.36829	-3101.95703	1973.06665	1023.50232	-3140.60303	2012.55408	1022.00940			 
45	0.440	7.19797	-405.63208	1684.25000	5.08630	-291.59113	1694.26172	104.58989	-406.61761	1605.45178	106.10271	-286.13467	1614.05005	107.54090	-356.90027	1437.01660	132.18202	-345.94583	1143.27661	-39.99274	-345.95932	1376.16016	-88.47324	-345.49640	1221.38867	158.07567	-276.92764	1241.94958	12.55110	-510.54172	1398.75513	33.54381	-606.11298	1222.40540	43.45436	-630.19604	1074.43970	-7.83319	-640.52423	966.31677	-78.89007	-594.42926	854.55688	-38.23730	-639.13232	848.22894	-90.68635	-628.53217	781.51044	30.17619	-199.40375	1402.24646	81.16439	-82.16866	1213.21558	65.97511	-55.02047	1089.78503	18.22700	-35.52449	972.91461	-49.69507	-87.46101	858.02783	-30.56633	-32.71223	859.76544	-64.97857	-50.30233	782.87494	-53.71423	-445.34796	937.32361	-42.68214	-228.20854	941.00775	137.70125	-404.08630	951.87891	143.71657	-261.45529	957.37262	-0.17777	-517.48914	606.31519	22.58233	-507.85779	472.22781	74.87543	-530.55383	293.01508	84.74599	-488.36343	71.64776	124.16927	-435.84238	39.38055	-64.28873	-509.04889	33.30307	32.36946	-157.69388	613.21527	25.55359	-173.52142	456.14026	72.79585	-151.18105	288.15570	79.83647	-179.12341	78.50522	124.69974	-227.59628	35.58819	-61.75885	-164.37909	37.00019	26.71093	-315.87506	1722.34937	-3101.95264	1973.10291	1023.13684	-3140.50708	2012.62720	1022.10834			 
46	0.450	7.19295	-405.64386	1684.24377	5.07701	-291.60156	1694.27917	104.60548	-406.62762	1605.47888	106.11781	-286.17145	1614.05200	107.60254	-356.91199	1437.01526	132.23846	-345.90573	1143.25769	-39.92958	-345.98129	1376.16187	-88.39387	-345.47580	1221.38403	158.12360	-276.89575	1241.96301	12.63342	-510.52237	1398.75891	33.61694	-606.12439	1222.39478	43.53815	-630.19879	1074.42383	-7.76590	-640.53583	966.29871	-78.82419	-594.44312	854.54248	-38.17408	-639.12213	848.18939	-90.61253	-628.52423	781.51483	30.20384	-199.42946	1402.22913	81.22137	-82.15479	1213.17749	66.02804	-54.99837	1089.75964	18.27592	-35.50746	972.89874	-49.63458	-87.45189	858.02899	-30.53886	-32.70035	859.77332	-64.90331	-50.25353	782.86841	-53.64921	-445.34534	937.31757	-42.63739	-228.18642	941.03131	137.75896	-404.04834	951.87756	143.81041	-261.39163	957.41736	-0.11932	-517.45996	606.33679	22.63091	-507.83371	472.24310	74.89678	-530.53619	293.03174	84.74226	-488.31442	71.66963	124.10498	-435.86404	39.35107	-64.32240	-509.03464	33.28913	32.40305	-157.71368	613.24072	25.34778	-173.56659	455.93204	72.83288	-151.18092	288.19510	79.85395	-179.13237	78.47018	124.75443	-227.63724	35.60452	-61.77270	-164.38773	37.02441	26.69292	-315.90778	1722.37158	-3101.85767	1973.05359	1023.40210	-3140.65649	2012.55945	1022.02435			 
